<?xml version="1.0" standalone="no"?>
<!DOCTYPE svg PUBLIC "-//W3C//DTD SVG 20010904//EN"
 "http://www.w3.org/TR/2001/REC-SVG-20010904/DTD/svg10.dtd">
<svg version="1.0" xmlns="http://www.w3.org/2000/svg"
 width="260.000000pt" height="260.000000pt" viewBox="0 0 260.000000 260.000000"
 preserveAspectRatio="xMidYMid meet">
<metadata>
Created by potrace 1.14, written by Peter Selinger 2001-2017
</metadata>
<g transform="translate(0.000000,260.000000) scale(0.100000,-0.100000)"
fill="#000000" stroke="none">
<path d="M1145 2590 c-114 -17 -191 -37 -273 -69 -356 -140 -605 -420 -689
-773 -26 -109 -24 -336 4 -448 56 -222 178 -416 361 -572 l44 -36 -216 -308
c-119 -169 -216 -315 -216 -325 0 -22 34 -59 54 -59 8 0 22 3 30 6 9 3 113
144 232 313 l216 308 61 -33 c221 -117 510 -157 792 -109 68 12 216 63 297
103 l78 38 49 -76 c27 -41 115 -178 196 -305 81 -126 152 -233 159 -237 38
-25 103 23 90 65 -3 11 -93 155 -200 321 l-193 301 42 35 c189 160 306 348
362 583 32 137 29 327 -8 468 -73 278 -254 510 -522 666 -99 58 -291 125 -400
140 -61 8 -302 10 -350 3z m390 -133 c374 -84 656 -337 762 -684 24 -79 26
-104 26 -238 0 -121 -4 -165 -21 -226 -75 -276 -273 -503 -546 -629 -77 -35
-176 -67 -241 -77 -16 -3 -50 -8 -74 -13 -46 -8 -293 -6 -308 3 -4 3 -26 8
-48 11 -119 19 -308 103 -415 183 -193 145 -324 344 -370 561 -25 116 -21 294
9 407 54 205 184 392 360 518 201 145 401 207 656 202 80 -2 170 -9 210 -18z"/>
</g>
</svg>
